# xmcd CD database file
#
# Track frame offsets:
#	150
#	24051
#	50153
#	75490
#	97570
#	119203
#	143990
#	168931
#
# Disc length: 2582 seconds
#
# Revision: 0
# Processed by: cddbd v1.5.2PL0 Copyright (c) Steve Scherf et al.
# Submitted via: CDex 1.70beta2
#
DISCID=5c0a1408
DTITLE=Horace Silver - Swingin´ The Samba
DYEAR=1900
DGENRE=Jazz
TTITLE0=swingin´ the samba
TTITLE1=juicy lucy
TTITLE2=mellow d
TTITLE3=cookin´ at the continental
TTITLE4=finger poppin´
TTITLE5=you happened my way
TTITLE6=sweet stuff
TTITLE7=come on home
EXTD=
EXTT0=
EXTT1=
EXTT2=
EXTT3=
EXTT4=
EXTT5=
EXTT6=
EXTT7=
PLAYORDER=
